<mxfile host="app.diagrams.net" modified="2023-05-08T07:28:56.394Z" agent="Mozilla/5.0 (Macintosh; Intel Mac OS X 10_15_7) AppleWebKit/537.36 (KHTML, like Gecko) Chrome/112.0.0.0 Safari/537.36" etag="MIVX_740p7FbluRatpMA" version="21.2.9" type="github">
  <diagram name="페이지-1" id="tsgPhIssH0S1TCMxmM53">
    <mxGraphModel dx="1781" dy="524" grid="1" gridSize="10" guides="1" tooltips="1" connect="1" arrows="1" fold="1" page="1" pageScale="1" pageWidth="827" pageHeight="1169" math="0" shadow="0">
      <root>
        <mxCell id="0" />
        <mxCell id="1" parent="0" />
        <mxCell id="cbvDhCFMUBx_PBE_txJa-1" value="Actor" style="shape=umlActor;verticalLabelPosition=bottom;verticalAlign=top;html=1;outlineConnect=0;" vertex="1" parent="1">
          <mxGeometry x="-730" y="160" width="30" height="60" as="geometry" />
        </mxCell>
        <mxCell id="cbvDhCFMUBx_PBE_txJa-5" value="" style="ellipse;whiteSpace=wrap;html=1;" vertex="1" parent="1">
          <mxGeometry x="-610" y="130" width="120" height="80" as="geometry" />
        </mxCell>
      </root>
    </mxGraphModel>
  </diagram>
</mxfile>
